<?xml version="1.0" standalone="no"?><!DOCTYPE svg PUBLIC "-//W3C//DTD SVG 1.1//EN" "http://www.w3.org/Graphics/SVG/1.1/DTD/svg11.dtd"><svg t="1520508736865" class="icon" style="" viewBox="0 0 1024 1024" version="1.1" xmlns="http://www.w3.org/2000/svg" p-id="2895" xmlns:xlink="http://www.w3.org/1999/xlink" width="128" height="128"><defs><style type="text/css"></style></defs><path d="M799.687188 192.57804 638.889969 192.57804 638.889969 94.221942c0-16.954137-13.745049-30.699186-30.699186-30.699186l-192.381565 0c-16.954137 0-30.699186 13.745049-30.699186 30.699186l0 98.356099L224.312812 192.57804c-16.954137 0-30.699186 13.745049-30.699186 30.699186l0 706.152908c0 16.954137 13.745049 30.699186 30.699186 30.699186l575.374376 0c16.954137 0 30.699186-13.745049 30.699186-30.699186l0-706.152908C830.386374 206.323089 816.641325 192.57804 799.687188 192.57804zM446.508403 124.921127l130.983193 0 0 67.656913-130.983193 0L446.508403 124.921127zM768.988002 898.730948 255.011998 898.730948l0-644.754536 160.797219 0 192.381565 0L768.988002 253.976412 768.988002 898.730948z" p-id="2896" fill="#e6e6e6"></path><path d="M674.17459 704.255699 349.82541 704.255699c-16.954137 0-30.699186 13.745049-30.699186 30.699186s13.745049 30.699186 30.699186 30.699186l324.349179 0c16.954137 0 30.699186-13.745049 30.699186-30.699186S691.12975 704.255699 674.17459 704.255699z" p-id="2897" fill="#e6e6e6"></path><path d="M674.17459 576.778352 349.82541 576.778352c-16.954137 0-30.699186 13.745049-30.699186 30.699186s13.745049 30.699186 30.699186 30.699186l324.349179 0c16.954137 0 30.699186-13.745049 30.699186-30.699186S691.12975 576.778352 674.17459 576.778352z" p-id="2898" fill="#e6e6e6"></path><path d="M319.126224 479.999169c0 16.954137 13.745049 30.699186 30.699186 30.699186l324.349179 0c16.954137 0 30.699186-13.745049 30.699186-30.699186s-13.745049-30.699186-30.699186-30.699186L349.82541 449.299983C332.87025 449.299983 319.126224 463.044008 319.126224 479.999169z" p-id="2899" fill="#e6e6e6"></path></svg>