<?xml version="1.0" standalone="no"?><!DOCTYPE svg PUBLIC "-//W3C//DTD SVG 1.1//EN" "http://www.w3.org/Graphics/SVG/1.1/DTD/svg11.dtd"><svg t="1520510748496" class="icon" style="" viewBox="0 0 1024 1024" version="1.1" xmlns="http://www.w3.org/2000/svg" p-id="3369" xmlns:xlink="http://www.w3.org/1999/xlink" width="128" height="128"><defs><style type="text/css"></style></defs><path d="M846.611917 85.510536c-59.643402-39.140439-139.895167-22.38994-178.919972 37.309744L341.052606 622.593817c-7.867178 12.038174-11.592013 31.724539-8.668427 45.816488l20.085454 96.674806L266.953981 895.961882c-12.363585 18.891256-7.082302 44.254923 11.799744 56.646138 18.885116 12.390191 44.193525 7.113001 56.561204-11.778254l84.470857-129.270179 99.121532-20.745487c14.048971-2.960425 30.577413-14.245446 38.444591-26.282596l326.637292-499.773538C923.014005 205.057259 906.247132 124.651998 846.611917 85.510536zM866.518293 253.290797 539.881001 753.064334c-4.828982 7.399527-16.636912 15.46932-25.25929 17.267269L390.907061 796.223297c-2.734274 0.569982-5.499248 0.047072-7.839549-1.474584-2.320858-1.542122-3.921309-3.879354-4.489244-6.603395l-25.749454-123.968429c-1.805112-8.654101 0.867764-22.718421 5.689582-30.116925l326.643432-499.774561c32.712029-50.059116 100.024088-64.095807 150.015665-31.28247C885.185444 135.813199 899.246695 203.243961 866.518293 253.290797zM774.693957 194.285938c-38.542828-25.302269-90.436732-14.480806-115.656113 24.118304l-14.263865 21.825075 37.60241 24.663726c7.603165 4.997827 9.743922 15.259542 4.780887 22.892383-4.999874 7.610328-15.249309 9.748015-22.858614 4.76656l-37.59013-24.681122-51.584865 78.9317 37.601386 24.662703c7.615445 5.01113 9.751085 15.258519 4.770653 22.87908-4.980431 7.621585-15.216563 9.756201-22.817682 4.774747l-37.615713-24.692379-51.577702 78.929654 37.589107 24.681122c3.704368 2.425236 6.230911 6.134721 7.123234 10.45205 0.902556 4.330632 0.069585 8.741082-2.351558 12.42703-4.981455 7.621585-15.232936 9.759271-22.838148 4.761444l-37.59627-24.679076-51.577702 78.929654 37.594223 24.664749c3.697205 2.426259 6.235005 6.149047 7.126304 10.467399 0.900509 4.316306 0.069585 8.741082-2.344395 12.426007-4.983501 7.606235-15.226796 9.741875-22.839171 4.747117L417.768849 587.568093l-10.570753 16.173354c-3.721765 5.705955-5.783727 16.544815-4.384867 23.214724l19.85214 95.576799c0.440022 2.113127 1.674129 3.919263 3.461845 5.105275 1.799996 1.167592 3.935636 1.572822 6.043646 1.1328l95.385441-19.953448c6.650467-1.38658 15.748682-7.614421 19.470447-13.319353l251.835655-385.320832C824.095088 271.575232 813.253158 219.583091 774.693957 194.285938z" p-id="3370" fill="#e6e6e6"></path><path d="M176.23277 179.806155c18.10024-1.804089 28.052916-11.755742 29.877471-29.877471-1.824555-17.188474-11.777231-26.694989-29.877471-28.519544-17.20894 1.824555-26.715455 11.33107-28.519544 28.519544C149.517315 168.050414 159.02383 178.002067 176.23277 179.806155L176.23277 179.806155zM176.23277 94.247524c34.397415 3.628644 53.410444 22.195511 57.039087 55.68116-3.628644 34.418904-22.641673 53.431933-57.039087 57.039087-33.506115-3.607154-52.072983-22.620184-55.68116-57.039087C124.159788 116.444059 142.727679 97.876168 176.23277 94.247524L176.23277 94.247524zM345.991082 110.544699c47.977711 2.715855 72.868611 15.405875 74.694189 38.026058-0.912789 14.493086-8.148587 22.195511-21.728884 23.086811-3.628644 0-9.060353-1.357927-16.297175-4.074805-12.688997-4.519943-24.912389-6.79066-36.668131-6.79066-41.654702 1.824555-63.383586 28.073382-65.186651 78.767971 2.715855 47.999201 24.444738 73.335239 65.186651 76.052117 11.755742 0 24.445762-3.162016 38.026058-9.506515 7.235798-3.607154 13.113669-5.432733 17.655102-5.432733 12.668531 0.912789 20.370956 9.061376 23.086811 24.444738-0.912789 24.445762-27.161616 37.113269-78.767971 38.026058-74.248028-4.519943-114.077152-46.174646-119.509884-124.942617C231.91393 158.543899 271.743054 115.976408 345.991082 110.544699L345.991082 110.544699z" p-id="3371" fill="#e6e6e6"></path></svg>