<?xml version="1.0" encoding="UTF-8"?>
<svg width="13px" height="10px" viewBox="0 0 13 10" version="1.1" xmlns="http://www.w3.org/2000/svg" xmlns:xlink="http://www.w3.org/1999/xlink">
    <!-- Generator: Sketch 52.5 (67469) - http://www.bohemiancoding.com/sketch -->
    <title>wifi-signal copy 4</title>
    <desc>Created with Sketch.</desc>
    <g id="Routers-debug" stroke="none" stroke-width="1" fill="none" fill-rule="evenodd">
        <g id="列表-Backhacl-Copy" transform="translate(-425.000000, -393.000000)" fill="#FFFFFF">
            <g id="wifi-signal-copy-4" transform="translate(425.000000, 393.000000)">
                <path d="M6.49997796,0 C4.06893846,0 1.78092663,0.882941316 0.0573472027,2.48616248 C-0.0191222621,2.55732687 -0.0191222621,2.67269117 0.0573863776,2.74381912 L1.35055084,3.9466176 C1.38729693,3.98079691 1.43708826,4 1.48903422,4 C1.54098018,4 1.59081069,3.98079691 1.6275176,3.9466176 C2.93114177,2.7340536 4.66153764,2.06620876 6.49997796,2.06620876 C8.33849664,2.06620876 10.0688925,2.7340536 11.3723992,3.9466176 C11.4091452,3.98079691 11.4589757,4 11.5109217,4 C11.5628677,4 11.6126982,3.98079691 11.6494051,3.9466176 L12.9426087,2.74381912 C12.9793548,2.70963981 13,2.66332647 13,2.61497258 C13,2.56661869 12.9794332,2.52030535 12.9426087,2.48612604 C11.2190293,0.882977754 8.93101747,0 6.49997796,0 Z" id="路径"></path>
                <path d="M6.50001682,4 C5.19793614,4 3.97243063,4.53902683 3.04928938,5.51787243 C3.01769707,5.55133419 3,5.59667523 3,5.64404966 C3,5.69135274 3.01766343,5.73672945 3.04928938,5.77015554 L4.15989849,6.9477383 C4.19145715,6.98120006 4.23421947,7 4.27883224,7 C4.32344502,7 4.36624098,6.98120006 4.397766,6.9477383 C4.9602705,6.35131279 5.70684476,6.02286672 6.50001682,6.02286672 C7.29318889,6.02286672 8.03983043,6.35138413 8.60230129,6.9477383 C8.63385995,6.98120006 8.67662227,7 8.7212014,7 C8.76578053,7 8.80861014,6.98120006 8.84013516,6.9477383 L9.95074427,5.77015554 C10.0164186,5.70048516 10.0164186,5.58754281 9.95074427,5.51794378 C9.02763666,4.53902683 7.80213115,4 6.50001682,4 Z" id="路径"></path>
                <path d="M6.50001762,8 C5.95551036,8 5.44374361,8.18932868 5.05895204,8.53309835 C4.98034261,8.60334131 4.98034261,8.7171759 5.05899231,8.78738288 L6.35765883,9.94730879 C6.39543324,9.98104555 6.44661797,10 6.50001762,10 C6.55341727,10 6.60468254,9.98104555 6.64237641,9.94730879 L7.94104292,8.78738288 C8.01965236,8.71713993 8.01965236,8.60330534 7.94104292,8.53306238 C7.55621108,8.18932868 7.04444433,8 6.50001762,8 Z" id="路径"></path>
            </g>
        </g>
    </g>
</svg>