<?xml version="1.0" encoding="UTF-8"?>
<svg width="12px" height="12px" viewBox="0 0 12 12" version="1.1" xmlns="http://www.w3.org/2000/svg" xmlns:xlink="http://www.w3.org/1999/xlink">
    <title>Deployment Tool icon</title>
    <g id="20201120-部署工具" stroke="none" stroke-width="1" fill="none" fill-rule="evenodd">
        <g id="按钮状态" transform="translate(-600.000000, -468.000000)" fill="#787878">
            <path d="M612,468 L612,480 L600,480 L600,468 L612,468 Z M607.071746,471.001511 C606.275368,470.250884 605.132135,469.996125 604.092394,470.337589 C603.985543,470.331176 603.88096,470.370235 603.804472,470.445122 L603.804472,470.445122 C603.65222,470.595125 603.65222,470.838235 603.802135,470.988239 L603.802135,470.988239 L605.159927,472.346031 L604.345252,473.160706 L602.987459,471.802914 C602.837456,471.652999 602.594346,471.652999 602.444343,471.802914 L602.444343,471.802914 C602.369456,471.881739 602.330396,471.986322 602.33681,472.093174 C601.995346,473.132914 602.250105,474.276148 603.000732,475.072526 C603.751358,475.868904 604.877539,476.190778 605.935641,475.911356 L605.935641,475.911356 L607.593823,477.569927 C608.139647,478.115279 609.024103,478.115279 609.569927,477.569927 C610.114545,477.023977 610.114196,476.140122 609.569148,475.594602 L609.569148,475.594602 L607.910576,473.93642 C608.189999,472.878318 607.868124,471.752138 607.071746,471.001511 Z M607.573953,474.72733 L609.005381,476.158369 C609.239278,476.392265 609.239278,476.771485 609.005381,477.005381 C608.771485,477.239278 608.392265,477.239278 608.158369,477.005381 L608.158369,477.005381 L606.72733,475.573953 C607.068667,475.357818 607.357818,475.068667 607.573953,474.72733 L607.573953,474.72733 Z M604.875511,470.974602 C605.513122,470.922265 606.141443,471.153271 606.593304,471.606161 C607.154872,472.133909 607.384635,472.925506 607.192892,473.671905 C607.001149,474.418304 606.418304,475.001149 605.671905,475.192892 C604.925506,475.384635 604.133909,475.154872 603.606161,474.593304 C603.153271,474.141443 602.922265,473.513122 602.974602,472.875511 L602.974602,472.875511 L603.803304,473.703823 C603.947326,473.847906 604.142699,473.928856 604.34642,473.928856 C604.550142,473.928856 604.745515,473.847906 604.889537,473.703823 L604.889537,473.703823 L605.703823,472.889537 C605.847906,472.745515 605.928856,472.550142 605.928856,472.34642 C605.928856,472.142699 605.847906,471.947326 605.703823,471.803304 L605.703823,471.803304 Z" id="形状结合"></path>
        </g>
    </g>
</svg>