<?xml version="1.0" encoding="UTF-8"?>
<svg width="11px" height="10px" viewBox="0 0 11 10" version="1.1" xmlns="http://www.w3.org/2000/svg" xmlns:xlink="http://www.w3.org/1999/xlink">
    <!-- Generator: Sketch 52.5 (67469) - http://www.bohemiancoding.com/sketch -->
    <title>合并形状</title>
    <desc>Created with Sketch.</desc>
    <g id="Routers-debug" stroke="none" stroke-width="1" fill="none" fill-rule="evenodd">
        <g id="列表-Backhacl-Copy" transform="translate(-425.000000, -361.000000)" fill="#FFFFFF">
            <path d="M431,363 L430,363 L430,365 L428,365 L428,363 L427,363 L427,367 L429,367 L429,369 L432,369 L432,367 L434,367 L434,363 L433,363 L433,365 L431,365 L431,363 Z M436,363 L436,367 L436,369 L434,369 L434,371 L429,371 L427,371 L427,369 L425,369 L425,363 L425,361 L436,361 L436,363 Z" id="合并形状"></path>
        </g>
    </g>
</svg>