<?xml version="1.0" encoding="UTF-8"?>
<svg width="13px" height="9px" viewBox="0 0 13 9" version="1.1" xmlns="http://www.w3.org/2000/svg" xmlns:xlink="http://www.w3.org/1999/xlink">
    <!-- Generator: Sketch 52.5 (67469) - http://www.bohemiancoding.com/sketch -->
    <title>signal</title>
    <desc>Created with Sketch.</desc>
    <g id="Routers-debug" stroke="none" stroke-width="1" fill="none" fill-rule="evenodd">
        <g id="列表-Backhacl-Copy" transform="translate(-425.000000, -422.000000)" fill="#FFFFFF">
            <g id="分组-copy-2" transform="translate(382.000000, 419.000000)">
                <g id="signal" transform="translate(43.303848, 2.000000)">
                    <path d="M0.696152423,6 C0.622152423,6.06654863 0.696152423,7.44593352 0.696152423,7.54820826 L0.696152423,10 C0.696152423,10 0.845485756,10 1.02948576,10 L2.36281909,10 C2.54681909,10 2.54681909,10 2.69615242,10 L2.69615242,6 C2.4739302,6 1.80726353,6 0.696152423,6 Z" id="路径"></path>
                    <path d="M3.69615242,5.02522387 C3.62215242,5.07719261 3.69615242,6.12914934 3.69615242,6.20901709 L3.69615242,10 C3.84548576,10 3.84548576,10 4.02948576,10 L5.36281909,10 C5.54681909,10 5.54681909,10 5.69615242,10 L5.69615242,5.02522387 C5.69615242,4.95410875 5.02948576,4.95410875 3.69615242,5.02522387 Z" id="路径"></path>
                    <path d="M6.69615242,2 C6.62215242,2.06046089 6.69615242,3.31366222 6.69615242,3.40658105 C6.69615242,7.80219368 6.69615242,10 6.69615242,10 C6.69615242,10 6.84548576,10 7.02948576,10 L8.36281909,10 C8.54681909,10 8.19615242,10 8.69615242,10 L8.69615242,2 C8.36281909,2 7.69615242,2 6.69615242,2 Z" id="路径"></path>
                    <path d="M11.6961524,1 L9.69615242,1 C9.62215242,1.05343624 9.69615242,2.16118465 9.69615242,2.24330771 L9.69615242,10 C9.69615242,10 9.84548576,10 10.0294858,10 L11.3628191,10 C11.5468191,10 11.1961524,10 11.6961524,10 L11.6961524,1.28145537 C11.6961524,1.17177046 11.7948191,0.928001696 11.6961524,1 Z" id="路径"></path>
                </g>
            </g>
        </g>
    </g>
</svg>